<svg width="17" height="17" viewBox="0 0 17 17" fill="none" xmlns="http://www.w3.org/2000/svg">
<path d="M8.55144 0.448242C6.36493 0.450208 4.26871 1.11308 2.72262 2.29146C1.17652 3.46983 0.306787 5.06748 0.304208 6.73396C0.301589 8.0958 0.885248 9.42069 1.96565 10.5054C1.96565 10.5054 2.19058 10.7311 2.22731 10.7637L8.55144 16.4482L14.8786 10.7608C14.9116 10.7305 15.1372 10.5054 15.1372 10.5054L15.138 10.5037C16.2178 9.41945 16.8012 8.09517 16.7987 6.73396C16.7961 5.06748 15.9264 3.46983 14.3803 2.29146C12.8342 1.11308 10.738 0.450208 8.55144 0.448242ZM8.55144 9.01967C7.9583 9.01967 7.37847 8.88562 6.88529 8.63446C6.39211 8.3833 6.00772 8.02632 5.78073 7.60866C5.55375 7.191 5.49436 6.73142 5.61007 6.28804C5.72579 5.84465 6.01142 5.43738 6.43083 5.11771C6.85025 4.79805 7.38462 4.58036 7.96637 4.49216C8.54811 4.40397 9.15111 4.44923 9.69911 4.62223C10.2471 4.79523 10.7155 5.0882 11.045 5.46408C11.3745 5.83997 11.5504 6.28189 11.5504 6.73396C11.5494 7.33993 11.2332 7.92087 10.671 8.34937C10.1087 8.77786 9.34652 9.01892 8.55144 9.01967Z" fill="white"/>
</svg>
