<svg width="33" height="33" viewBox="0 0 33 33" fill="none" xmlns="http://www.w3.org/2000/svg">
<path d="M16.6393 8.07685C12.099 8.07685 8.43675 11.7399 8.43675 16.2812C8.43675 20.8226 12.099 24.4856 16.6393 24.4856C21.1796 24.4856 24.8419 20.8226 24.8419 16.2812C24.8419 11.7399 21.1796 8.07685 16.6393 8.07685ZM16.6393 21.6152C13.7052 21.6152 11.3066 19.2231 11.3066 16.2812C11.3066 13.3394 13.6981 10.9473 16.6393 10.9473C19.5805 10.9473 21.9721 13.3394 21.9721 16.2812C21.9721 19.2231 19.5734 21.6152 16.6393 21.6152ZM27.0906 7.74125C27.0906 8.80518 26.234 9.6549 25.1774 9.6549C24.1137 9.6549 23.2642 8.79804 23.2642 7.74125C23.2642 6.68446 24.1209 5.82761 25.1774 5.82761C26.234 5.82761 27.0906 6.68446 27.0906 7.74125ZM32.5233 9.68346C32.4019 7.12003 31.8166 4.84936 29.939 2.97856C28.0686 1.10776 25.7985 0.522241 23.2356 0.393712C20.5942 0.243763 12.6772 0.243763 10.0359 0.393712C7.48014 0.5151 5.20998 1.10062 3.33245 2.97142C1.45493 4.84222 0.876679 7.11289 0.748179 9.67632C0.598263 12.3183 0.598263 20.2371 0.748179 22.879C0.86954 25.4425 1.45493 27.7131 3.33245 29.5839C5.20998 31.4547 7.473 32.0403 10.0359 32.1688C12.6772 32.3187 20.5942 32.3187 23.2356 32.1688C25.7985 32.0474 28.0686 31.4619 29.939 29.5839C31.8094 27.7131 32.3948 25.4425 32.5233 22.879C32.6732 20.2371 32.6732 12.3254 32.5233 9.68346ZM29.1109 25.7138C28.5541 27.1133 27.4761 28.1915 26.0698 28.7556C23.9638 29.5911 18.9666 29.3983 16.6393 29.3983C14.312 29.3983 9.30769 29.5839 7.20886 28.7556C5.80964 28.1987 4.73167 27.1205 4.1677 25.7138C3.33245 23.6074 3.5252 18.609 3.5252 16.2812C3.5252 13.9535 3.33959 8.94799 4.1677 6.84869C4.72453 5.44916 5.8025 4.37095 7.20886 3.80686C9.31483 2.97142 14.312 3.16421 16.6393 3.16421C18.9666 3.16421 23.9709 2.97856 26.0698 3.80686C27.469 4.36381 28.547 5.44202 29.1109 6.84869C29.9462 8.95513 29.7534 13.9535 29.7534 16.2812C29.7534 18.609 29.9462 23.6145 29.1109 25.7138Z" fill="url(#paint0_radial_398_64)"/>
<defs>
<radialGradient id="paint0_radial_398_64" cx="0" cy="0" r="1" gradientUnits="userSpaceOnUse" gradientTransform="translate(1.4822 32.2812) rotate(-58.4422) scale(62.8399 93.733)">
<stop offset="0.0237428" stop-color="#8B58F0"/>
<stop offset="0.585728" stop-color="#D690D6"/>
<stop offset="1" stop-color="#E8E8FF"/>
</radialGradient>
</defs>
</svg>
