<svg width="19" height="16" viewBox="0 0 19 16" fill="none" xmlns="http://www.w3.org/2000/svg">
<path d="M8.35904 4.20473L5.56902 1.66663C5.24738 1.37415 4.6577 1.37545 4.2841 1.67053L1.98973 3.48197C1.30687 4.02079 1.11141 4.82089 1.50645 5.46241C3.86648 9.3134 7.80734 12.4235 12.6905 14.2889C13.5036 14.6002 14.5181 14.4462 15.2009 13.9073L17.5167 12.079C17.892 11.7833 17.8928 11.316 17.5184 11.0625L14.2855 8.87535C13.9473 8.64656 13.422 8.67646 13.083 8.94425L11.9581 9.83209C11.9005 9.87966 11.8247 9.91102 11.7423 9.92135C11.6599 9.93168 11.5755 9.92042 11.5021 9.88929C9.66329 9.0548 8.13801 7.85116 7.08155 6.40095C7.04199 6.34294 7.02766 6.2763 7.04077 6.21126C7.05388 6.14622 7.0937 6.08636 7.15413 6.04087L8.27575 5.15627C8.61553 4.88719 8.65264 4.47122 8.35904 4.20408V4.20473Z" stroke="white" stroke-width="2" stroke-linecap="round" stroke-linejoin="round"/>
</svg>
