<svg width="33" height="27" viewBox="0 0 33 27" fill="none" xmlns="http://www.w3.org/2000/svg">
<path d="M29.3465 6.76091C29.3668 7.04528 29.3668 7.3297 29.3668 7.61406C29.3668 16.2875 22.7678 26.2812 10.7068 26.2812C6.99108 26.2812 3.53932 25.2046 0.635742 23.336C1.16368 23.3969 1.67125 23.4172 2.2195 23.4172C5.28545 23.4172 8.10783 22.3813 10.3617 20.6141C7.47839 20.5531 5.06213 18.6641 4.22963 16.0641C4.63576 16.125 5.04182 16.1656 5.46826 16.1656C6.05708 16.1656 6.64595 16.0843 7.19414 15.9422C4.18907 15.3328 1.93518 12.6922 1.93518 9.50311V9.42189C2.80825 9.9094 3.82357 10.2141 4.89963 10.2547C3.13313 9.07651 1.97581 7.0656 1.97581 4.79058C1.97581 3.57185 2.30062 2.45466 2.86919 1.47966C6.09764 5.4609 10.9505 8.06086 16.3921 8.34528C16.2906 7.85778 16.2296 7.35002 16.2296 6.8422C16.2296 3.22653 19.1535 0.28125 22.788 0.28125C24.6763 0.28125 26.3819 1.07344 27.5799 2.35312C29.0621 2.06876 30.4834 1.5203 31.7424 0.768754C31.255 2.29223 30.2195 3.57191 28.8591 4.38436C30.1789 4.24224 31.4581 3.87653 32.6357 3.36877C31.7425 4.66872 30.6257 5.82649 29.3465 6.76091Z" fill="white" fill-opacity="0.7"/>
</svg>
