<svg width="33" height="21" viewBox="0 0 33 21" fill="none" xmlns="http://www.w3.org/2000/svg">
<path d="M31.9064 1.6375C32.1262 0.85625 31.9064 0.28125 30.849 0.28125H27.3501C26.459 0.28125 26.0491 0.775 25.8293 1.325C25.8293 1.325 24.0472 5.89375 21.5284 8.85625C20.7146 9.7125 20.3403 9.9875 19.8948 9.9875C19.675 9.9875 19.3364 9.7125 19.3364 8.93125V1.6375C19.3364 0.7 19.0869 0.28125 18.3503 0.28125H12.8494C12.291 0.28125 11.9583 0.71875 11.9583 1.125C11.9583 2.0125 13.2177 2.21875 13.3484 4.71875V10.1438C13.3484 11.3313 13.1464 11.55 12.7009 11.55C11.5128 11.55 8.62569 6.9625 6.91483 1.7125C6.57028 0.69375 6.23168 0.28125 5.33466 0.28125H1.83572C0.837719 0.28125 0.635742 0.775 0.635742 1.325C0.635742 2.3 1.82384 7.14375 6.16633 13.5438C9.05935 17.9125 13.1345 20.2812 16.8414 20.2812C19.0691 20.2812 19.3423 19.7563 19.3423 18.85C19.3423 14.675 19.1403 14.2812 20.2572 14.2812C20.774 14.2812 21.6651 14.5563 23.7442 16.6625C26.1204 19.1625 26.5125 20.2812 27.8432 20.2812H31.3421C32.3401 20.2812 32.845 19.7563 32.554 18.7188C31.8886 16.5375 27.3917 12.05 27.1897 11.75C26.6729 11.05 26.8214 10.7375 27.1897 10.1125C27.1956 10.1062 31.4668 3.78125 31.9064 1.6375Z" fill="white" fill-opacity="0.7"/>
</svg>
